<svg id="linkedin" xmlns="http://www.w3.org/2000/svg" viewBox="0 0 49 49"><defs><style>.cls-1{fill:#546e7a;}</style></defs><title>linkedin</title><path class="cls-1" d="M66.27,25.5H33.73a8.26,8.26,0,0,0-8.23,8.23V66.27a8.26,8.26,0,0,0,8.23,8.23H66.27a8.26,8.26,0,0,0,8.23-8.23V33.73A8.26,8.26,0,0,0,66.27,25.5ZM43.88,65.31H37.75V43.88h6.13V65.31Zm-3.06-24.5a3.06,3.06,0,1,1,3.06-3.06A3.06,3.06,0,0,1,40.81,40.81Zm24.5,24.5H59.19V53.06a3.06,3.06,0,0,0-6.12,0V65.31H46.94V43.88h6.13v3.8c1.26-1.74,3.19-3.8,5.36-3.8,3.81,0,6.89,3.43,6.89,7.66V65.31h0Z" transform="translate(-25.5 -25.5)"/></svg>