<svg id="twitter" xmlns="http://www.w3.org/2000/svg" viewBox="0 0 49 40.06"><defs><style>.cls-1{fill:#546e7a;}</style></defs><title>twitter</title><path class="cls-1" d="M74.5,34.71a20,20,0,0,1-5.77,1.59,10.14,10.14,0,0,0,4.42-5.59,20.06,20.06,0,0,1-6.38,2.45,10,10,0,0,0-17.39,6.92,10.2,10.2,0,0,0,.26,2.3A28.49,28.49,0,0,1,28.91,31.82,10.16,10.16,0,0,0,32,45.32a10,10,0,0,1-4.55-1.26s0,0.08,0,.13a10.1,10.1,0,0,0,8.06,9.92,10,10,0,0,1-4.54.17,10.07,10.07,0,0,0,9.39,7A20.1,20.1,0,0,1,27.9,65.63a20.41,20.41,0,0,1-2.4-.14A28.34,28.34,0,0,0,40.91,70c18.49,0,28.6-15.41,28.6-28.77q0-.66,0-1.31A20.53,20.53,0,0,0,74.5,34.71Z" transform="translate(-25.5 -29.97)"/></svg>