<svg id="github" xmlns="http://www.w3.org/2000/svg" viewBox="0 0 49 49"><defs><style>.cls-1{fill:#546e7a;}</style></defs><title>github</title><path class="cls-1" d="M50,25.5A24.5,24.5,0,1,0,74.5,50,24.5,24.5,0,0,0,50,25.5Zm14.55,39A20.52,20.52,0,0,1,58,69q-0.93.39-1.9,0.69V66a4.8,4.8,0,0,0-2-4.26,21.53,21.53,0,0,0,2.28-.33,17.17,17.17,0,0,0,2.2-.62,11,11,0,0,0,2.08-1,8.69,8.69,0,0,0,1.77-1.46,8.54,8.54,0,0,0,1.42-2,11.15,11.15,0,0,0,.91-2.73,17.06,17.06,0,0,0,.33-3.51,9,9,0,0,0-2.42-6.32,8.36,8.36,0,0,0-.24-6.24l-0.6-.07a5.9,5.9,0,0,0-2.24.53,17.42,17.42,0,0,0-3.62,2,22,22,0,0,0-5.91-.79,21.58,21.58,0,0,0-5.89.79,20.46,20.46,0,0,0-2.4-1.42A12.39,12.39,0,0,0,40,37.74a6.25,6.25,0,0,0-1.27-.25,4.54,4.54,0,0,0-.75,0l-0.24,0a8.36,8.36,0,0,0-.24,6.24,9,9,0,0,0-2.42,6.32,17,17,0,0,0,.34,3.51,11.17,11.17,0,0,0,.91,2.73,8.54,8.54,0,0,0,1.42,2,8.69,8.69,0,0,0,1.77,1.46,10.86,10.86,0,0,0,2.08,1,17.25,17.25,0,0,0,2.2.62,21.4,21.4,0,0,0,2.28.33,4.79,4.79,0,0,0-2,4.26v3.74a20.61,20.61,0,1,1,20.42-5.18h0Z" transform="translate(-25.5 -25.5)"/></svg>